<svg id="Capa_1" enable-background="new 0 0 512 512" height="512" viewBox="0 0 512 512" width="512" xmlns="http://www.w3.org/2000/svg"><g><g><g><path d="m256 512c-27.57 0-50-22.43-50-50s22.43-50 50-50 50 22.43 50 50-22.43 50-50 50zm0-70c-11.028 0-20 8.972-20 20s8.972 20 20 20 20-8.972 20-20-8.972-20-20-20z"/></g></g><g><g><g><g><path d="m256 377c-33.084 0-60-26.916-60-60v-257c0-33.084 26.916-60 60-60s60 26.916 60 60v257c0 33.084-26.916 60-60 60zm0-347c-16.542 0-30 13.458-30 30v257c0 16.542 13.458 30 30 30s30-13.458 30-30v-257c0-16.542-13.458-30-30-30z"/></g></g></g></g></g></svg>