<svg xmlns="http://www.w3.org/2000/svg" width="24.092" height="24.091" viewBox="0 0 24.092 24.091">
  <path id="pinterest-square-brands" d="M24.092,34.581V53.51a2.582,2.582,0,0,1-2.581,2.581H8.3A13.779,13.779,0,0,0,9.777,52.9c.161-.618.823-3.141.823-3.141a3.531,3.531,0,0,0,3.028,1.516c3.985,0,6.851-3.662,6.851-8.212,0-4.361-3.56-7.625-8.142-7.625-5.7,0-8.722,3.823-8.722,7.991,0,1.936,1.033,4.345,2.678,5.114.253.118.382.065.441-.177.043-.183.269-1.081.366-1.495a.39.39,0,0,0-.091-.376,5.147,5.147,0,0,1-.984-3.011,5.716,5.716,0,0,1,5.964-5.732A5.215,5.215,0,0,1,17.5,43.126c0,3.571-1.8,6.044-4.152,6.044A1.921,1.921,0,0,1,11.4,46.783c.371-1.57,1.092-3.264,1.092-4.4,0-2.85-4.06-2.458-4.06,1.344a4.825,4.825,0,0,0,.393,1.963c-1.689,7.141-1.941,7.233-1.592,10.357l.118.043H2.581A2.582,2.582,0,0,1,0,53.51V34.581A2.582,2.582,0,0,1,2.581,32H21.51A2.582,2.582,0,0,1,24.092,34.581Z" transform="translate(0 -32)" fill="#fff"/>
</svg>
