<svg xmlns="http://www.w3.org/2000/svg" width="27.533" height="22.362" viewBox="0 0 27.533 22.362">
  <path id="twitter-brands" d="M24.7,53.655c.017.245.017.489.017.734,0,7.46-5.678,16.055-16.055,16.055A15.947,15.947,0,0,1,0,67.911a11.673,11.673,0,0,0,1.363.07A11.3,11.3,0,0,0,8.368,65.57a5.653,5.653,0,0,1-5.276-3.913,7.116,7.116,0,0,0,1.066.087,5.968,5.968,0,0,0,1.485-.192,5.644,5.644,0,0,1-4.525-5.538v-.07a5.683,5.683,0,0,0,2.551.716,5.651,5.651,0,0,1-1.747-7.547,16.04,16.04,0,0,0,11.635,5.9,6.37,6.37,0,0,1-.14-1.293,5.648,5.648,0,0,1,9.766-3.861A11.11,11.11,0,0,0,26.765,48.5a5.628,5.628,0,0,1-2.481,3.11,11.313,11.313,0,0,0,3.249-.873,12.13,12.13,0,0,1-2.83,2.917Z" transform="translate(0 -48.082)" fill="#fff"/>
</svg>
