<svg xmlns="http://www.w3.org/2000/svg" width="24.092" height="24.091" viewBox="0 0 24.092 24.091">
  <path id="facebook-square-brands" d="M21.51,32H2.581A2.581,2.581,0,0,0,0,34.581V53.51a2.581,2.581,0,0,0,2.581,2.581H9.962V47.9H6.574V44.046H9.962V41.107c0-3.342,1.99-5.188,5.037-5.188a20.525,20.525,0,0,1,2.986.26v3.28H16.3a1.928,1.928,0,0,0-2.174,2.083v2.5h3.7L17.237,47.9H14.13v8.191H21.51a2.581,2.581,0,0,0,2.581-2.581V34.581A2.581,2.581,0,0,0,21.51,32Z" transform="translate(0 -32)" fill="#fff"/>
</svg>
