<svg xmlns="http://www.w3.org/2000/svg" width="29.369" height="20.65" viewBox="0 0 29.369 20.65">
  <path id="youtube-brands" d="M43.688,67.231a3.69,3.69,0,0,0-2.6-2.613C38.8,64,29.617,64,29.617,64s-9.184,0-11.474.618a3.69,3.69,0,0,0-2.6,2.613,41.549,41.549,0,0,0,0,14.23,3.635,3.635,0,0,0,2.6,2.572c2.29.618,11.474.618,11.474.618s9.184,0,11.474-.618a3.635,3.635,0,0,0,2.6-2.572,41.549,41.549,0,0,0,0-14.23ZM26.614,78.713V69.979l7.676,4.367Z" transform="translate(-14.933 -64)" fill="#fff"/>
</svg>
