<svg xmlns="http://www.w3.org/2000/svg" width="24.092" height="24.091" viewBox="0 0 24.092 24.091">
  <path id="line-brands" d="M14.632,41.26v3.823a.17.17,0,0,1-.172.172h-.613a.178.178,0,0,1-.14-.07l-1.753-2.366v2.269a.17.17,0,0,1-.172.172h-.613A.17.17,0,0,1,11,45.089V41.265a.17.17,0,0,1,.172-.172h.608a.162.162,0,0,1,.14.075l1.753,2.366V41.265a.17.17,0,0,1,.172-.172h.613A.17.17,0,0,1,14.632,41.26Zm-4.41-.172H9.61a.17.17,0,0,0-.172.172v3.823a.17.17,0,0,0,.172.172h.613a.17.17,0,0,0,.172-.172V41.26A.173.173,0,0,0,10.223,41.088ZM8.744,44.293H7.071V41.26a.17.17,0,0,0-.172-.172H6.286a.17.17,0,0,0-.172.172v3.823a.158.158,0,0,0,.048.118.181.181,0,0,0,.118.048H8.738a.17.17,0,0,0,.172-.172v-.613A.172.172,0,0,0,8.744,44.293Zm9.115-3.205H15.4a.173.173,0,0,0-.172.172v3.823a.173.173,0,0,0,.172.172h2.458a.17.17,0,0,0,.172-.172V44.47a.17.17,0,0,0-.172-.172H16.186v-.645h1.672a.17.17,0,0,0,.172-.172v-.618a.17.17,0,0,0-.172-.172H16.186v-.645h1.672a.17.17,0,0,0,.172-.172V41.26A.181.181,0,0,0,17.859,41.088Zm6.233-4.695V51.736A4.38,4.38,0,0,1,19.7,56.091H4.356A4.384,4.384,0,0,1,0,51.7V36.356A4.384,4.384,0,0,1,4.393,32H19.736A4.38,4.38,0,0,1,24.092,36.393Zm-3.313,6.593c0-3.926-3.936-7.12-8.771-7.12s-8.771,3.194-8.771,7.12c0,3.517,3.119,6.464,7.335,7.023,1.027.22.909.6.678,1.979-.038.22-.177.866.758.473A28.345,28.345,0,0,0,18.9,47.369,6.353,6.353,0,0,0,20.779,42.986Z" transform="translate(0 -32)" fill="#fff"/>
</svg>
