<svg xmlns="http://www.w3.org/2000/svg" width="24.105" height="24.1" viewBox="0 0 24.105 24.1">
  <path id="instagram-brands" d="M11.98,37.7a6.179,6.179,0,1,0,6.179,6.179A6.169,6.169,0,0,0,11.98,37.7Zm0,10.2A4.017,4.017,0,1,1,16,43.875a4.024,4.024,0,0,1-4.017,4.017Zm7.873-10.449A1.441,1.441,0,1,1,18.412,36,1.438,1.438,0,0,1,19.853,37.443Zm4.092,1.463A7.132,7.132,0,0,0,22,33.856a7.179,7.179,0,0,0-5.05-1.947c-1.99-.113-7.953-.113-9.943,0a7.169,7.169,0,0,0-5.05,1.941A7.155,7.155,0,0,0,.01,38.9C-.1,40.89-.1,46.854.01,48.844a7.132,7.132,0,0,0,1.947,5.05,7.188,7.188,0,0,0,5.05,1.947c1.99.113,7.953.113,9.943,0A7.132,7.132,0,0,0,22,53.893a7.179,7.179,0,0,0,1.947-5.05C24.058,46.854,24.058,40.9,23.945,38.906ZM21.375,50.979a4.067,4.067,0,0,1-2.291,2.291c-1.586.629-5.351.484-7.1.484s-5.523.14-7.1-.484a4.067,4.067,0,0,1-2.291-2.291c-.629-1.586-.484-5.351-.484-7.1s-.14-5.523.484-7.1A4.067,4.067,0,0,1,4.876,34.48c1.586-.629,5.351-.484,7.1-.484s5.523-.14,7.1.484a4.067,4.067,0,0,1,2.291,2.291c.629,1.586.484,5.351.484,7.1S22,49.4,21.375,50.979Z" transform="translate(0.075 -31.825)" fill="#fff"/>
</svg>
