<svg xmlns="http://www.w3.org/2000/svg" width="118.209" height="41.252" viewBox="0 0 118.209 41.252">
  <g id="Component_14_1" data-name="Component 14 – 1" transform="translate(1.418 1.252)">
    <path id="Path_374" data-name="Path 374" d="M929.167,988.472q0,4.547-2.142,7.016a7.788,7.788,0,0,1-6.218,2.468,9.584,9.584,0,0,1-2.708-.337,6.374,6.374,0,0,1-1.871-.852,15.736,15.736,0,0,1-1.716-1.447l-1.961,1.938a11.194,11.194,0,0,0,8.269,3.23,11.96,11.96,0,0,0,5.93-1.422,9.674,9.674,0,0,0,3.915-4.017,12.632,12.632,0,0,0,1.37-5.982V962.5h-2.868Z" transform="translate(-912.552 -962.502)" fill="#af7960" stroke="#af7960" stroke-width="2"/>
    <path id="Path_375" data-name="Path 375" d="M979.559,987.593a11.361,11.361,0,0,1-1.251,5.439,8.874,8.874,0,0,1-3.562,3.631,11.289,11.289,0,0,1-10.491,0,8.894,8.894,0,0,1-3.548-3.631,11.353,11.353,0,0,1-1.252-5.439V962.5h-2.868v25.453a12.814,12.814,0,0,0,1.643,6.486,11.41,11.41,0,0,0,4.6,4.458,14.866,14.866,0,0,0,13.373,0,11.457,11.457,0,0,0,4.578-4.458,12.821,12.821,0,0,0,1.643-6.486V962.5h-2.869Z" transform="translate(-926.535 -962.502)" fill="#af7960" stroke="#af7960" stroke-width="2"/>
    <path id="Path_376" data-name="Path 376" d="M1022.806,979.129h-2.687v11.938h-12.692l9.941-13.415h-10.442l8.1-13.652-2.23-1.324-10.43,17.569h9.848l-7.877,10.628c-.031-.018-.066-.033-.1-.052l-.122.246v.1l-.03.04.03.022V993.5h16v8.062h2.687V993.5h5.013v-2.43h-5.013Z" transform="translate(-941.073 -962.557)" fill="#af7960" stroke="#af7960" stroke-width="2"/>
    <path id="Path_377" data-name="Path 377" d="M1045.074,962.5v2.533h11.215v35.143h2.869V965.035h11.266V962.5Z" transform="translate(-954.633 -962.502)" fill="#af7960" stroke="#af7960" stroke-width="2"/>
  </g>
</svg>
