<svg aria-hidden="true" style="position: absolute; width: 0; height: 0; overflow: hidden;" version="1.1" xmlns="http://www.w3.org/2000/svg" xmlns:xlink="http://www.w3.org/1999/xlink">


<defs>

<symbol id="LOGO" width="85" height="27" viewBox="0 0 85.428 27.534"
fill="#af7960" stroke="#af7960" stroke-width="2">
   <path id="Path_374" data-name="Path 374" d="M923.638,979.595a6.77,6.77,0,0,1-1.429,4.617,5.233,5.233,0,0,1-4.149,1.624,6.478,6.478,0,0,1-1.807-.221,4.28,4.28,0,0,1-1.248-.561,10.46,10.46,0,0,1-1.145-.952l-1.308,1.275a7.524,7.524,0,0,0,5.517,2.126,8.068,8.068,0,0,0,3.957-.936,6.408,6.408,0,0,0,2.612-2.644,8.221,8.221,0,0,0,.914-3.937V962.5h-1.914Z" transform="translate(-912.552 -962.502)"/>
    <path id="Path_375" data-name="Path 375" d="M969.922,979.016a8.306,8.306,0,0,1-.726,3.58,5.611,5.611,0,0,1-10.217,0,8.3,8.3,0,0,1-.726-3.58V962.5h-1.665v16.752a9.336,9.336,0,0,0,.953,4.269,7.092,7.092,0,0,0,2.672,2.934,7.727,7.727,0,0,0,7.763,0,7.127,7.127,0,0,0,2.658-2.934,9.339,9.339,0,0,0,.954-4.269V962.5h-1.665Z" transform="translate(-934.587 -962.502)" />
    <path id="Path_376" data-name="Path 376" d="M1012.809,973.255h-1.373v7.676h-6.484l5.078-8.625H1004.7l4.14-8.778-1.139-.851-5.328,11.3h5.031l-3.638,6.18-.385.654c-.016-.012.117-.2.1-.208l-.214.333V981l-.015.026h0l.015,1.471h8.171v5.184h1.373v-5.184h2.561V980.93h-2.561Z" transform="translate(-956.37 -962.676)" />
    <path id="Path_377" data-name="Path 377" d="M1045.074,962.5v1.681h6.636V987.5h1.7V964.183h6.667V962.5Z" transform="translate(-977.075 -962.502)" />
  </symbol>

<symbol id="icon-search"
width="20"
height="20"
 viewBox="0 0 19.71 19.86" 
 fill="none" 
 stroke="#707070" 
 stroke-width="2.5" 
 stroke-linecap="round" 
 stroke-miterlimit="10">
<path id="ic-actions-search" class="cls-1" d="M8.44,1.25A7.19,7.19,0,1,1,1.25,8.44,7.19,7.19,0,0,1,8.44,1.25Zm5,12.35,5,5"/>
</symbol>

<symbol id="icon-user"
width="20"
height="20"
 viewBox="0 0 19.71 19.86" 
 fill="none" 
 stroke="#707070" 
 stroke-width="2.5" 
 stroke-linecap="round" 
 stroke-miterlimit="10">
<path id="ic-actions-user" class="cls-1" d="M1.25,18.89,2,16.6a7.66,7.66,0,0,1,14.79,0l.71,2.29M9.09,1.25A4.85,4.85,0,1,1,4.24,6.1,4.85,4.85,0,0,1,9.09,1.25Z"/>
</symbol>

<symbol id="icon-bag"
width="20"
height="20"
 viewBox="0 0 19.71 19.86" 
 fill="none" 
 stroke="#707070" 
 stroke-width="2.5" 
 stroke-linecap="round" 
 stroke-miterlimit="10">
<path id="ic-shopping-bag" class="cls-1" d="M13.67,18.61H3.12a1.94,1.94,0,0,1-1.51-.74,3.56,3.56,0,0,1-.36-1.63l.4-9.65A1.93,1.93,0,0,1,3.49,5.11H13.3a1.92,1.92,0,0,1,1.85,1.48l.36,9.65a1.93,1.93,0,0,1-1.43,2.32A2.7,2.7,0,0,1,13.67,18.61ZM4.11,5.11,5,3.35A3.88,3.88,0,0,1,8.4,1.25h0a3.87,3.87,0,0,1,3.41,2.1l.87,1.76"/>
</symbol>

<symbol id="brand-line"
 width="24.092" 
 height="24.091" 
 viewBox="0 0 24.092 24.091"
 fill="#fff">
<path id="line-brands" d="M14.632,41.26v3.823a.17.17,0,0,1-.172.172h-.613a.178.178,0,0,1-.14-.07l-1.753-2.366v2.269a.17.17,0,0,1-.172.172h-.613A.17.17,0,0,1,11,45.089V41.265a.17.17,0,0,1,.172-.172h.608a.162.162,0,0,1,.14.075l1.753,2.366V41.265a.17.17,0,0,1,.172-.172h.613A.17.17,0,0,1,14.632,41.26Zm-4.41-.172H9.61a.17.17,0,0,0-.172.172v3.823a.17.17,0,0,0,.172.172h.613a.17.17,0,0,0,.172-.172V41.26A.173.173,0,0,0,10.223,41.088ZM8.744,44.293H7.071V41.26a.17.17,0,0,0-.172-.172H6.286a.17.17,0,0,0-.172.172v3.823a.158.158,0,0,0,.048.118.181.181,0,0,0,.118.048H8.738a.17.17,0,0,0,.172-.172v-.613A.172.172,0,0,0,8.744,44.293Zm9.115-3.205H15.4a.173.173,0,0,0-.172.172v3.823a.173.173,0,0,0,.172.172h2.458a.17.17,0,0,0,.172-.172V44.47a.17.17,0,0,0-.172-.172H16.186v-.645h1.672a.17.17,0,0,0,.172-.172v-.618a.17.17,0,0,0-.172-.172H16.186v-.645h1.672a.17.17,0,0,0,.172-.172V41.26A.181.181,0,0,0,17.859,41.088Zm6.233-4.695V51.736A4.38,4.38,0,0,1,19.7,56.091H4.356A4.384,4.384,0,0,1,0,51.7V36.356A4.384,4.384,0,0,1,4.393,32H19.736A4.38,4.38,0,0,1,24.092,36.393Zm-3.313,6.593c0-3.926-3.936-7.12-8.771-7.12s-8.771,3.194-8.771,7.12c0,3.517,3.119,6.464,7.335,7.023,1.027.22.909.6.678,1.979-.038.22-.177.866.758.473A28.345,28.345,0,0,0,18.9,47.369,6.353,6.353,0,0,0,20.779,42.986Z" transform="translate(0 -32)" />
</symbol>



<symbol id="icon-facebook" viewBox="0 0 32 32">
<path d="M31.997 15.999c0-8.836-7.163-15.999-15.999-15.999s-15.999 7.163-15.999 15.999c0 7.985 5.851 14.604 13.499 15.804v-11.18h-4.062v-4.625h4.062v-3.525c0-4.010 2.389-6.225 6.043-6.225 1.75 0 3.581 0.313 3.581 0.313v3.937h-2.017c-1.987 0-2.607 1.233-2.607 2.498v3.001h4.437l-0.709 4.625h-3.728v11.18c7.649-1.2 13.499-7.819 13.499-15.804z"></path>
</symbol>





<symbol id="icon-instagram" viewBox="0 0 32 32">
<path d="M16 0c-4.347 0-4.889 0.020-6.596 0.096-1.704 0.080-2.864 0.348-3.884 0.744-1.052 0.408-1.945 0.956-2.835 1.845s-1.439 1.781-1.845 2.835c-0.396 1.020-0.665 2.18-0.744 3.884-0.080 1.707-0.096 2.249-0.096 6.596s0.020 4.889 0.096 6.596c0.080 1.703 0.348 2.864 0.744 3.884 0.408 1.051 0.956 1.945 1.845 2.835 0.889 0.888 1.781 1.439 2.835 1.845 1.021 0.395 2.181 0.665 3.884 0.744 1.707 0.080 2.249 0.096 6.596 0.096s4.889-0.020 6.596-0.096c1.703-0.080 2.864-0.349 3.884-0.744 1.051-0.408 1.945-0.957 2.835-1.845 0.888-0.889 1.439-1.78 1.845-2.835 0.395-1.020 0.665-2.181 0.744-3.884 0.080-1.707 0.096-2.249 0.096-6.596s-0.020-4.889-0.096-6.596c-0.080-1.703-0.349-2.865-0.744-3.884-0.408-1.052-0.957-1.945-1.845-2.835-0.889-0.889-1.78-1.439-2.835-1.845-1.020-0.396-2.181-0.665-3.884-0.744-1.707-0.080-2.249-0.096-6.596-0.096zM16 2.88c4.271 0 4.78 0.021 6.467 0.095 1.56 0.073 2.407 0.332 2.969 0.553 0.749 0.289 1.28 0.636 1.843 1.195 0.559 0.56 0.905 1.092 1.195 1.841 0.219 0.563 0.48 1.409 0.551 2.969 0.076 1.688 0.093 2.195 0.093 6.467s-0.020 4.78-0.099 6.467c-0.081 1.56-0.341 2.407-0.561 2.969-0.299 0.749-0.639 1.28-1.199 1.843-0.559 0.559-1.099 0.905-1.84 1.195-0.56 0.219-1.42 0.48-2.98 0.551-1.699 0.076-2.199 0.093-6.479 0.093-4.281 0-4.781-0.020-6.479-0.099-1.561-0.081-2.421-0.341-2.981-0.561-0.759-0.299-1.28-0.639-1.839-1.199-0.561-0.559-0.92-1.099-1.2-1.84-0.22-0.56-0.479-1.42-0.56-2.98-0.060-1.68-0.081-2.199-0.081-6.459 0-4.261 0.021-4.781 0.081-6.481 0.081-1.56 0.34-2.419 0.56-2.979 0.28-0.76 0.639-1.28 1.2-1.841 0.559-0.559 1.080-0.919 1.839-1.197 0.56-0.221 1.401-0.481 2.961-0.561 1.7-0.060 2.2-0.080 6.479-0.080zM16 7.784c-4.54 0-8.216 3.68-8.216 8.216 0 4.54 3.68 8.216 8.216 8.216 4.54 0 8.216-3.68 8.216-8.216 0-4.54-3.68-8.216-8.216-8.216zM16 21.333c-2.947 0-5.333-2.387-5.333-5.333s2.387-5.333 5.333-5.333 5.333 2.387 5.333 5.333-2.387 5.333-5.333 5.333zM26.461 7.46c0 1.060-0.861 1.92-1.92 1.92-1.060 0-1.92-0.861-1.92-1.92s0.861-1.919 1.92-1.919c1.057-0.001 1.92 0.86 1.92 1.919z"></path>
</symbol>


<symbol id="icon-images" viewBox="0 0 36 32">
<path d="M34 4h-2v-2c0-1.1-0.9-2-2-2h-28c-1.1 0-2 0.9-2 2v24c0 1.1 0.9 2 2 2h2v2c0 1.1 0.9 2 2 2h28c1.1 0 2-0.9 2-2v-24c0-1.1-0.9-2-2-2zM4 6v20h-1.996c-0.001-0.001-0.003-0.002-0.004-0.004v-23.993c0.001-0.001 0.002-0.003 0.004-0.004h27.993c0.001 0.001 0.003 0.002 0.004 0.004v1.996h-24c-1.1 0-2 0.9-2 2v0zM34 29.996c-0.001 0.001-0.002 0.003-0.004 0.004h-27.993c-0.001-0.001-0.003-0.002-0.004-0.004v-23.993c0.001-0.001 0.002-0.003 0.004-0.004h27.993c0.001 0.001 0.003 0.002 0.004 0.004v23.993z"></path>
<path d="M30 11c0 1.657-1.343 3-3 3s-3-1.343-3-3 1.343-3 3-3 3 1.343 3 3z"></path>
<path d="M32 28h-24v-4l7-12 8 10h2l7-6z"></path>
</symbol>




<symbol id="icon-book" viewBox="0 0 32 32">
<path d="M28 4v26h-21c-1.657 0-3-1.343-3-3s1.343-3 3-3h19v-24h-20c-2.2 0-4 1.8-4 4v24c0 2.2 1.8 4 4 4h24v-28h-2z"></path>
<path d="M7.002 26v0c-0.001 0-0.001 0-0.002 0-0.552 0-1 0.448-1 1s0.448 1 1 1c0.001 0 0.001-0 0.002-0v0h18.997v-2h-18.997z"></path>
</symbol>
<symbol id="icon-library" viewBox="0 0 34 32">
<path d="M32 30v-2h-2v-12h2v-2h-6v2h2v12h-6v-12h2v-2h-6v2h2v12h-6v-12h2v-2h-6v2h2v12h-6v-12h2v-2h-6v2h2v12h-2v2h-2v2h34v-2h-2z"></path>
<path d="M16 0h2l16 10v2h-34v-2l16-10z"></path>
</symbol>
<symbol id="icon-display" viewBox="0 0 32 32">
<path d="M0 2v20h32v-20h-32zM30 20h-28v-16h28v16zM21 24h-10l-1 4-2 2h16l-2-2z"></path>
</symbol>
</defs>



</svg>
